<svg t="1601171608996" class="icon" viewBox="0 0 4026 1024" version="1.1" xmlns="http://www.w3.org/2000/svg" p-id="6014" width="16" height="16"><path d="M1626.36913 479.033058c37.704588-23.668574 63.063774-68.292878 63.063775-119.404415 0-75.802342-55.790209-137.254137-124.751469-137.529353v-0.550432h-260.197044v514.535918h260.197044v-0.550432c68.961259-0.275216 124.751469-61.648378 124.751469-137.254137 0-51.072221-25.359186-95.617892-63.063775-119.247149z m-239.516529-195.324707h148.852525v0.275216c39.473834 0.157266 71.398887 32.200269 71.398886 71.674102s-31.925053 71.516836-71.398886 71.674103v0.275216h-148.852525v-143.898637z m148.852525 377.006565v0.275216h-148.852525v-143.898637h148.852525v0.314533c39.473834 0.11795 71.398887 32.121636 71.398886 71.595469-0.039317 39.591783-31.925053 71.556153-71.398886 71.713419zM1820.789557 299.159762h-25.43782c-12.188136 0-22.056594-9.868458-22.056594-22.056594v-33.065234c0-12.188136 9.868458-22.056594 22.056594-22.056594h25.43782c12.188136 0 22.056594 9.868458 22.056594 22.056594v33.065234c0 12.188136-9.868458 22.056594-22.056594 22.056594zM2120.774966 748.823344h-55.986792c-76.116875 0-138.040468-61.923594-138.040468-138.040468v-128.683126c0-76.116875 61.923594-138.040468 138.040468-138.040468h55.986792c76.116875 0 138.040468 61.923594 138.040469 138.040468v128.683126c0 76.116875-61.923594 138.040468-138.040469 138.040468z m-55.986792-342.290036c-41.636245 0-75.527126 33.890881-75.527126 75.527126v128.683125c0 41.636245 33.890881 75.527126 75.527126 75.527126h55.986792c41.636245 0 75.527126-33.890881 75.527127-75.527126v-128.683125c0-41.636245-33.890881-75.527126-75.527127-75.527126h-55.986792zM3339.391975 743.279708a31.256671 31.256671 0 0 1-31.256671-31.256671v-209.321405c0-41.636245-33.890881-75.527126-75.527126-75.527126h-55.986792c-41.636245 0-75.527126 33.890881-75.527126 75.527126v209.321405a31.256671 31.256671 0 0 1-62.513342 0v-209.321405c0-76.116875 61.923594-138.040468 138.040468-138.040469h55.986792c76.116875 0 138.040468 61.923594 138.040469 138.040469v209.321405a31.256671 31.256671 0 0 1-31.256672 31.256671zM1820.789557 740.842081h-25.43782c-12.188136 0-22.056594-9.868458-22.056594-22.056594V380.427107c0-12.188136 9.868458-22.056594 22.056594-22.056594h25.43782c12.188136 0 22.056594 9.868458 22.056594 22.056594v338.35838c0 12.188136-9.868458 22.056594-22.056594 22.056594z" p-id="6015" fill="#ffffff"></path><path d="M3083.598387 740.842081h-28.229295c-9.711192 0-17.535189-7.863313-17.535189-17.535189V375.945018c0-9.711192 7.863313-17.535189 17.535189-17.535189h28.229295c9.711192 0 17.535189 7.863313 17.53519 17.535189v347.361874c0.039317 9.671876-7.823997 17.535189-17.53519 17.535189zM3627.189249 760.382415h-36.643041c-76.116875 0-138.040468-61.923594-138.040468-138.040468v-119.640315c0-76.116875 61.923594-138.040468 138.040468-138.040469h36.643041c76.116875 0 138.040468 61.923594 138.040469 138.040469v119.640315c0 76.116875-61.923594 138.040468-138.040469 138.040468z m-36.643041-333.247226c-41.636245 0-75.527126 33.890881-75.527126 75.527126v119.640315c0 41.636245 33.890881 75.527126 75.527126 75.527126h36.643041c41.636245 0 75.527126-33.890881 75.527127-75.527126v-119.640315c0-41.636245-33.890881-75.527126-75.527127-75.527126h-36.643041z" p-id="6016" fill="#ffffff"></path><path d="M3750.210789 760.382415h-25.437819c-12.188136 0-22.056594-9.868458-22.056594-22.056594V260.000461c0-12.188136 9.868458-22.056594 22.056594-22.056595h25.437819c12.188136 0 22.056594 9.868458 22.056594 22.056595v478.32536c0 12.188136-9.868458 22.056594-22.056594 22.056594zM2931.600538 299.159762h-25.43782c-12.188136 0-22.056594-9.868458-22.056594-22.056594v-33.065234c0-12.188136 9.868458-22.056594 22.056594-22.056594h25.43782c12.188136 0 22.056594 9.868458 22.056594 22.056594v33.065234c0 12.188136-9.868458 22.056594-22.056594 22.056594zM2931.600538 740.842081h-25.43782c-12.188136 0-22.056594-9.868458-22.056594-22.056594V380.427107c0-12.188136 9.868458-22.056594 22.056594-22.056594h25.43782c12.188136 0 22.056594 9.868458 22.056594 22.056594v338.35838c0 12.188136-9.868458 22.056594-22.056594 22.056594zM2379.045498 742.139528h-25.437819c-12.188136 0-22.056594-9.868458-22.056594-22.056595V245.335381c0-12.188136 9.868458-22.056594 22.056594-22.056594h25.437819c12.188136 0 22.056594 9.868458 22.056595 22.056594v474.747552c-0.039317 12.188136-9.907775 22.056594-22.056595 22.056595zM2778.619773 741.510463h-25.437819c-12.188136 0-22.056594-9.868458-22.056594-22.056595V244.706316c0-12.188136 9.868458-22.056594 22.056594-22.056594h25.437819c12.188136 0 22.056594 9.868458 22.056595 22.056594v474.747552c0 12.148819-9.868458 22.056594-22.056595 22.056595z" p-id="6017" fill="#ffffff"></path><path d="M2604.565329 624.268458a43.236429 43.236429 0 0 1-38.530236 23.550624c-13.564216 0-25.634402-6.251334-33.576349-16.001843l-0.039316-0.039316c-1.14018-1.415396-2.201728-2.870109-3.145325-4.403456l-2.712844-5.111154-189.859704-357.151698a22.013346 22.013346 0 0 1 9.082127-29.801959l22.607026-12.030869a22.060526 22.060526 0 0 1 29.801959 9.121443l167.999692 315.987253 7.234249 13.564216 28.661777 53.942331c1.415396 2.673527 2.201728 5.504319 2.476944 8.374428z" p-id="6018" fill="#ffffff"></path><path d="M2798.042158 260.708159l-193.476829 363.874832v-0.314533a43.236429 43.236429 0 0 1-38.530236 23.550624c-13.564216 0-25.634402-6.251334-33.576349-16.001843l-0.039316-0.039316a22.017278 22.017278 0 0 1 0.235899-20.287349l26.342101-49.578192 7.194931-13.524899 170.319371-320.390708a22.107706 22.107706 0 0 1 29.841274-9.121444l22.56771 12.03087a22.060526 22.060526 0 0 1 9.121444 29.801958z" p-id="6019" fill="#ffffff"></path><path d="M2366.228297 246.239662m-34.519946 0a34.519946 34.519946 0 1 0 69.039892 0 34.519946 34.519946 0 1 0-69.039892 0Z" p-id="6020" fill="#ffffff"></path><path d="M2766.077788 246.121712m-34.519946 0a34.519946 34.519946 0 1 0 69.039893 0 34.519946 34.519946 0 1 0-69.039893 0Z" p-id="6021" fill="#ffffff"></path><path d="M663.820925 73.168132c-194.420426 0-357.505548 134.541294-401.186254 315.594087 0.511115 10.65479 1.847879 21.742062 3.970973 32.396852 1.847879 11.401805 4.600038 22.803609 7.745364 33.772931 5.936802 21.899328 13.682165 43.326857 23.236091 63.850106 9.553926 20.051449 21.466846 39.198618 34.677213 57.009023 13.249683 17.771089 27.83613 33.733615 44.270455 48.320061 15.962526 14.586447 33.301133 27.364331 51.54402 38.294337 18.085621 10.930006 37.154156 20.090766 57.009023 27.364331 39.237934 14.153964 80.716913 20.051449 121.763409 18.714686h1.415396c0.275216 0 0.668382 0 0.904282-0.039317v-1.376079h0.904281v1.376079c3.970973-0.157266 7.706047-0.511115 11.401804-0.864964 4.600038-0.471799 9.593242-1.37608 14.114648-1.847879 4.560722-0.904281 9.082127-1.847879 14.153964-3.223958l13.682166-4.088923c17.771089-6.369284 35.149011-15.530044 50.16794-26.931849 15.530044-11.401805 28.701094-25.555769 40.102899-41.518295 10.930006-15.962526 20.051449-33.301133 25.988251-52.015819 1.415396-4.560722 2.75216-9.553926 3.617124-14.153964 1.37608-5.032521 2.319677-9.553926 2.75216-14.586447 0.471799-5.032521 1.37608-9.553926 1.847878-14.586446 0-1.37608 0-2.280361 0.432483-3.656441 0.471799-1.37608 0-2.280361 0.471798-3.617124v-6.841083c0-4.560722 0-8.649645-0.471798-13.249683 0-2.280361-0.432482-4.600038-0.904282-6.841083-0.432482-2.280361-0.432482-4.600038-1.376079-6.369284-1.847879-8.649645-4.600038-17.29929-8.217163-25.988251-3.617124-8.649645-8.649645-16.434325-15.018929-23.275408a100.386992 100.386992 0 0 0-20.995047-18.242887c-7.90263-5.15047-16.512958-9.121444-25.516452-11.834287-4.600038-1.37608-9.121444-2.75216-13.721482-3.223959-4.600038-0.904281-9.082127-1.37608-14.114648-1.847878v-0.039317c-0.864964 0-1.729929-0.039317-2.555577-0.039317-8.453062 0-17.18134 1.49403-25.241236 5.150471-9.121444 4.12824-17.29929 10.497524-24.179689 18.675369a62.906508 62.906508 0 0 0-9.121444 16.04116c0.550432-1.14018 1.179497-2.201728 1.847879-3.223959 2.75216-3.617124 5.465003-6.841083 9.121444-9.121443 6.801766-5.032521 14.586447-8.217163 22.803609-9.121444 0.864964 0 1.808562-0.432482 3.184642-0.432482h8.217162c3.617124 0.432482 7.745364 0.904281 11.401805 1.37608 7.745364 1.37608 15.018929 4.600038 21.427529 9.121443 6.841083 4.600038 12.777884 10.065041 17.771089 16.866808 2.280361 3.184642 4.600038 6.841083 6.369284 10.930005 1.808562 3.656441 3.617124 8.217163 4.560721 12.306086 0.471799 2.280361 0.904281 4.600038 1.37608 6.369284 0 0.432482 0 0.904281 0.432483 1.847879v10.930005c0 1.847879 0 4.088923-0.432483 5.936802-0.904281 8.217163-2.75216 15.962526-5.03252 23.747207-2.712843 7.745364-5.936802 15.018929-10.497524 21.899328a153.307092 153.307092 0 0 1-15.018929 19.147168c-5.740219 5.779535-12.188136 10.851373-19.186485 15.018929-13.839432 8.492379-29.959224 13.013784-46.0397 13.642849v0.196583c-6.841083 0.471799-13.249683 0.471799-20.05145 0-6.841083-0.432482-13.249683-1.847879-19.618967-3.184642-13.249683-3.184642-25.948935-8.217163-37.861854-14.586447-23.747207-12.777884-45.135419-31.453254-61.097946-54.728662-4.088923-5.936802-7.745364-11.873603-10.930006-18.242887-3.223959-6.369284-5.936802-13.249683-8.688961-19.618967-4.560722-13.682165-7.745364-28.268612-8.649645-42.422576 0-1.847879 0-3.656441-0.432482-5.465003v-15.018929c0.432482-6.841083 0.904281-13.682165 1.37608-20.051449 1.37608-13.249683 4.088923-26.931849 7.745363-39.670417 1.847879-6.369284 4.088923-12.777884 6.369284-19.147168 2.280361-6.369284 4.993204-12.777884 7.745364-18.714686 5.465003-12.306086 12.306086-24.179689 20.051449-35.149012 7.78468-11.401805 15.962526-21.899328 25.555769-31.453254 4.600038-5.032521 9.553926-9.553926 14.586447-14.153964 4.953888-4.521405 10.143674-8.767595 15.530044-12.777884 21.466846-16.434325 45.135419-29.21221 70.651872-37.390056 12.777884-4.088923 25.516452-7.312882 38.766135-9.082127 6.369284-0.904281 13.249683-1.847879 19.618968-2.319678 6.52655-0.432482 12.620618-0.432482 18.675369-0.432482h1.847879v-2.280361h0.904281v2.358994c11.991553 0.432482 24.061739 1.847879 36.485774 3.577808l9.082127 1.37608 18.242888 3.65644c3.184642 0.432482 5.936802 1.37608 9.082127 2.280361a330.345663 330.345663 0 0 1 69.315108 25.555769c10.969322 5.465003 21.899328 11.401805 32.396852 18.242888 10.497524 6.369284 20.523248 13.682165 30.116491 20.95573 19.147168 15.018929 36.918257 31.964369 52.920099 50.639739 15.962526 18.714686 29.644692 38.766136 41.478979 59.761182 11.873603 20.95573 21.466846 43.326857 28.701094 66.130467 7.312882 22.803609 12.777884 46.079017 15.530045 69.786907 1.37608 11.834287 2.280361 23.747207 2.28036 35.581494 0 11.441121-0.393166 22.842926-0.864964 33.890881-0.039317-0.039317-0.039317-0.078633-0.039317-0.157266-0.432482-11.401805-1.847879-23.275408-4.088923-34.677213-2.280361-11.401805-4.560722-22.803609-7.745363-33.733615-5.936802-21.938645-13.682165-43.366174-23.275408-63.850105-9.553926-20.051449-21.427529-39.198618-34.677213-57.009023-13.249683-17.771089-27.796813-33.733615-44.270455-48.320062a320.803532 320.803532 0 0 0-51.54402-38.294336c-18.085621-10.930006-37.154156-20.090766-57.009023-27.364331-39.198618-14.153964-80.716913-20.051449-121.763409-18.714686h-1.415397c-0.275216 0-0.629065 0-0.904281 0.039316v2.241045h-0.904281v-2.241045c-3.970973 0.157266-7.706047 0.471799-11.401804 0.864965-4.560722 0.432482-9.593242 1.37608-14.114648 1.847878-4.600038 0.864964-9.121444 1.808562-14.153964 3.184642l-13.682166 4.088923c-17.771089 6.369284-35.149011 15.530044-50.128623 26.931849-15.530044 11.401805-28.740411 25.516452-40.142216 41.478979-10.930006 15.962526-20.051449 33.301133-25.988251 52.015819-1.415396 4.600038-2.75216 9.553926-3.617124 14.153964-1.37608 5.032521-2.280361 9.553926-2.75216 14.586446-0.904281 5.032521-1.336763 9.553926-1.847878 14.586447 0 1.37608 0 2.280361-0.432483 3.617124 0 1.37608 0 2.280361-0.471798 3.617124v6.683817c0 4.600038 0 8.688961 0.471798 13.249683 0 2.280361 0.432482 4.600038 0.904281 6.841083 0.432482 2.280361 0.432482 4.560722 1.336764 6.369284 1.847879 8.649645 4.600038 17.29929 8.217162 25.988251 3.617124 8.177846 8.649645 16.395009 15.018929 23.236091a101.318794 101.318794 0 0 0 20.955731 18.242887c7.745364 5.032521 16.434325 9.121444 25.516452 11.873604 4.560722 1.37608 9.082127 2.75216 13.682165 3.184642 4.600038 0.471799 9.121444 1.37608 14.114648 1.847878v0.943598c0.864964 0 1.729929 0.039317 2.594894 0.039317 8.492379 0 17.220657-1.49403 25.201919-5.111154 9.121444-4.12824 17.29929-10.497524 24.179689-18.714686 3.617124-4.678672 6.683816-9.986408 8.964178-15.569361l-1.651296 2.830793c-2.75216 3.617124-5.465003 6.801766-9.082127 9.082127-6.841083 5.032521-14.586447 8.217163-22.803609 9.121444-0.904281 0-1.847879 0.432482-3.184642 0.432482h-8.217163c-3.656441-0.432482-7.745364-0.904281-11.401805-1.37608-7.745364-1.415396-15.058245-4.600038-21.466845-9.121444-6.801766-4.600038-12.777884-10.025725-17.771089-16.866807-2.280361-3.184642-4.560722-6.801766-6.369284-10.930006-1.847879-3.617124-3.656441-8.217163-4.600038-12.306085-0.471799-2.280361-0.904281-4.600038-1.415397-6.369284 0-0.432482 0-0.904281-0.432482-1.847879v-10.930006c0-1.847879 0-4.088923 0.432482-5.936801 0.904281-8.217163 2.75216-15.962526 5.032521-23.747207 2.75216-7.78468 5.897485-15.018929 10.497524-21.899328a164.107353 164.107353 0 0 1 15.018928-19.186485c5.897485-5.897485 12.306086-10.930006 19.147169-15.018929 13.564216-8.374429 29.330159-12.856518 45.135419-13.603532v-0.078634h0.904281c6.841083-0.432482 13.249683-0.432482 20.05145 0 6.841083 0.471799 13.249683 1.847879 19.618967 3.223959 13.249683 3.184642 25.948935 8.177846 37.861854 14.586447 23.747207 12.777884 45.135419 31.453254 61.097946 54.767978 4.088923 5.936802 7.745364 11.834287 10.969322 18.242887 3.184642 6.369284 5.936802 13.249683 8.649645 19.579651 4.560722 13.682165 7.745364 28.268612 8.649645 42.422576 0 1.847879 0 3.656441 0.432482 5.465003v15.058245c-0.432482 6.801766-0.904281 13.682165-1.376079 20.05145a232.360914 232.360914 0 0 1-7.745364 39.6311c-1.847879 6.369284-4.088923 12.777884-6.369284 19.186485-2.280361 6.369284-5.032521 12.777884-7.745364 18.714686a207.009591 207.009591 0 0 1-20.051449 35.149011c-7.745364 10.969322-15.962526 21.899328-25.555769 31.453254-4.600038 5.032521-9.553926 9.593242-14.586447 14.153965a201.505272 201.505272 0 0 1-15.530044 12.777884c-21.427529 16.434325-45.135419 29.172893-70.691188 37.390056-12.777884 4.088923-25.516452 7.312882-38.766136 9.121443-6.369284 0.904281-13.249683 1.847879-19.618967 2.280361-6.487234 0.471799-12.620618 0.471799-18.67537 0.471799h-1.847878v1.37608h-0.904281v-1.37608c-11.991553-0.471799-24.022423-1.847879-36.485775-3.577808l-9.553926-1.376079-9.082127-1.847879-9.121444-1.847879c-3.184642-0.432482-5.936802-1.37608-9.082127-2.280361-23.983106-5.897485-47.219198-14.468497-69.315108-25.555769-10.969322-5.465003-21.899328-11.401805-32.396852-18.242887-10.497524-6.369284-20.523248-13.682165-30.11649-20.95573a374.112866 374.112866 0 0 1-52.9201-50.600423c-15.962526-18.714686-29.644692-38.766136-41.478979-59.721866-11.873603-20.995047-21.466846-43.326857-28.740411-66.130466-7.273565-22.803609-12.777884-46.079017-15.530044-69.747591-1.37608-11.873603-2.280361-23.747207-2.280361-35.581493 0-10.458207 0.353849-20.837781 1.100864-30.627607-7.430831 31.256671-11.165905 63.299674-11.165905 95.381993 0 227.918142 184.787867 412.745325 412.706009 412.745326s412.745325-184.787867 412.745325-412.745326c0.314533-228.114725-184.473335-412.863275-412.430793-412.863275z" p-id="6022" fill="#ffffff"></path></svg>
